<svg width="776.6" height="432.3" xmlns="http://www.w3.org/2000/svg" xmlns:xlink="http://www.w3.org/1999/xlink"><line x1="193.0625" y1="6.0" x2="174.8125" y2="29.0" style="stroke:black; stroke-width:1px;" />
<line x1="174.8125" y1="35.0" x2="23.25" y2="58.0" style="stroke:black; stroke-width:1px;" />
<line x1="23.25" y1="64.0" x2="12.0" y2="87.0" style="stroke:black; stroke-width:1px;" />
<line x1="23.25" y1="64.0" x2="34.5" y2="87.0" style="stroke:black; stroke-width:1px;" />
<line x1="174.8125" y1="35.0" x2="94.75" y2="58.0" style="stroke:black; stroke-width:1px;" />
<line x1="94.75" y1="64.0" x2="70.0" y2="87.0" style="stroke:black; stroke-width:1px;" />
<line x1="94.75" y1="64.0" x2="105.5" y2="87.0" style="stroke:black; stroke-width:1px;" />
<line x1="94.75" y1="64.0" x2="119.5" y2="87.0" style="stroke:black; stroke-width:1px;" />
<line x1="174.8125" y1="35.0" x2="283.875" y2="58.0" style="stroke:black; stroke-width:1px;" />
<line x1="283.875" y1="64.0" x2="143.0" y2="87.0" style="stroke:black; stroke-width:1px;" />
<line x1="283.875" y1="64.0" x2="166.5" y2="87.0" style="stroke:black; stroke-width:1px;" />
<line x1="283.875" y1="64.0" x2="198.0" y2="87.0" style="stroke:black; stroke-width:1px;" />
<line x1="198.0" y1="93.0" x2="180.5" y2="116.0" style="stroke:black; stroke-width:1px;" />
<line x1="198.0" y1="93.0" x2="215.5" y2="116.0" style="stroke:black; stroke-width:1px;" />
<line x1="283.875" y1="64.0" x2="254.5" y2="87.0" style="stroke:black; stroke-width:1px;" />
<line x1="283.875" y1="64.0" x2="304.0" y2="87.0" style="stroke:black; stroke-width:1px;" />
<line x1="304.0" y1="93.0" x2="246.5" y2="116.0" style="stroke:black; stroke-width:1px;" />
<line x1="304.0" y1="93.0" x2="269.0" y2="116.0" style="stroke:black; stroke-width:1px;" />
<line x1="304.0" y1="93.0" x2="291.5" y2="116.0" style="stroke:black; stroke-width:1px;" />
<line x1="304.0" y1="93.0" x2="326.5" y2="116.0" style="stroke:black; stroke-width:1px;" />
<line x1="326.5" y1="122.0" x2="284.25" y2="145.0" style="stroke:black; stroke-width:1px;" />
<line x1="326.5" y1="122.0" x2="305.25" y2="145.0" style="stroke:black; stroke-width:1px;" />
<line x1="326.5" y1="122.0" x2="324.75" y2="145.0" style="stroke:black; stroke-width:1px;" />
<line x1="326.5" y1="122.0" x2="344.25" y2="145.0" style="stroke:black; stroke-width:1px;" />
<line x1="326.5" y1="122.0" x2="368.75" y2="145.0" style="stroke:black; stroke-width:1px;" />
<line x1="304.0" y1="93.0" x2="361.5" y2="116.0" style="stroke:black; stroke-width:1px;" />
<line x1="283.875" y1="64.0" x2="342.125" y2="87.0" style="stroke:black; stroke-width:1px;" />
<line x1="283.875" y1="64.0" x2="390.25" y2="87.0" style="stroke:black; stroke-width:1px;" />
<line x1="390.25" y1="93.0" x2="375.5" y2="116.0" style="stroke:black; stroke-width:1px;" />
<line x1="390.25" y1="93.0" x2="390.0" y2="116.0" style="stroke:black; stroke-width:1px;" />
<line x1="390.25" y1="93.0" x2="405.0" y2="116.0" style="stroke:black; stroke-width:1px;" />
<line x1="283.875" y1="64.0" x2="424.75" y2="87.0" style="stroke:black; stroke-width:1px;" />
<line x1="174.8125" y1="35.0" x2="326.375" y2="58.0" style="stroke:black; stroke-width:1px;" />
<line x1="193.0625" y1="6.0" x2="211.3125" y2="29.0" style="stroke:black; stroke-width:1px;" />
<rect x="173.0" y="116.0" width="15.0" height="12.0" style="fill:orange; stroke:rgb(0,0,0);" rx="1"/>
<text x="175" y="125" style="font-family:sans-serif;font-size:10px;">
@
</text>
<rect x="290.0" y="87.0" width="28.0" height="12.0" style="fill:orange; stroke:rgb(0,0,0);" rx="1"/>
<text x="292" y="96" style="font-family:sans-serif;font-size:10px;">
color
</text>
<rect x="338.625" y="87.0" width="7.0" height="12.0" style="fill:orange; stroke:rgb(0,0,0);" rx="1"/>
<text x="340" y="96" style="font-family:sans-serif;font-size:10px;">
·
</text>
<rect x="251.0" y="87.0" width="7.0" height="12.0" style="fill:orange; stroke:rgb(0,0,0);" rx="1"/>
<text x="253" y="96" style="font-family:sans-serif;font-size:10px;">
·
</text>
<rect x="315.75" y="145.0" width="18.0" height="12.0" style="fill:orange; stroke:rgb(0,0,0);" rx="1"/>
<text x="317" y="154" style="font-family:sans-serif;font-size:10px;">
will
</text>
<rect x="340.75" y="145.0" width="7.0" height="12.0" style="fill:orange; stroke:rgb(0,0,0);" rx="1"/>
<text x="342" y="154" style="font-family:sans-serif;font-size:10px;">
·
</text>
<rect x="302.0" y="116.0" width="49.0" height="12.0" style="fill:orange; stroke:rgb(0,0,0);" rx="1"/>
<text x="304" y="125" style="font-family:sans-serif;font-size:10px;">
message
</text>
<rect x="259.375" y="58.0" width="49.0" height="12.0" style="fill:orange; stroke:rgb(0,0,0);" rx="1"/>
<text x="261" y="67" style="font-family:sans-serif;font-size:10px;">
message
</text>
<rect x="195.0" y="116.0" width="41.0" height="12.0" style="fill:orange; stroke:rgb(0,0,0);" rx="1"/>
<text x="197" y="125" style="font-family:sans-serif;font-size:10px;">
michael
</text>
<rect x="358.0" y="116.0" width="7.0" height="12.0" style="fill:orange; stroke:rgb(0,0,0);" rx="1"/>
<text x="360" y="125" style="font-family:sans-serif;font-size:10px;">
/
</text>
<rect x="243.0" y="116.0" width="7.0" height="12.0" style="fill:orange; stroke:rgb(0,0,0);" rx="1"/>
<text x="245" y="125" style="font-family:sans-serif;font-size:10px;">
/
</text>
<rect x="130.0" y="87.0" width="26.0" height="12.0" style="fill:orange; stroke:rgb(0,0,0);" rx="1"/>
<text x="132" y="96" style="font-family:sans-serif;font-size:10px;">
hello
</text>
<rect x="102.0" y="87.0" width="7.0" height="12.0" style="fill:orange; stroke:rgb(0,0,0);" rx="1"/>
<text x="104" y="96" style="font-family:sans-serif;font-size:10px;">
:
</text>
<rect x="288.0" y="116.0" width="7.0" height="12.0" style="fill:orange; stroke:rgb(0,0,0);" rx="1"/>
<text x="290" y="125" style="font-family:sans-serif;font-size:10px;">
/
</text>
<rect x="386.0" y="116.0" width="8.0" height="12.0" style="fill:orange; stroke:rgb(0,0,0);" rx="1"/>
<text x="388" y="125" style="font-family:sans-serif;font-size:10px;">
-
</text>
<rect x="421.25" y="87.0" width="7.0" height="12.0" style="fill:orange; stroke:rgb(0,0,0);" rx="1"/>
<text x="423" y="96" style="font-family:sans-serif;font-size:10px;">
·
</text>
<rect x="366.25" y="87.0" width="48.0" height="12.0" style="fill:orange; stroke:rgb(0,0,0);" rx="1"/>
<text x="368" y="96" style="font-family:sans-serif;font-size:10px;">
emoticon
</text>
<rect x="315.375" y="58.0" width="22.0" height="12.0" style="fill:orange; stroke:rgb(0,0,0);" rx="1"/>
<text x="317" y="67" style="font-family:sans-serif;font-size:10px;">
\n\n
</text>
<rect x="163.0" y="87.0" width="7.0" height="12.0" style="fill:orange; stroke:rgb(0,0,0);" rx="1"/>
<text x="165" y="96" style="font-family:sans-serif;font-size:10px;">
·
</text>
<rect x="372.0" y="116.0" width="7.0" height="12.0" style="fill:orange; stroke:rgb(0,0,0);" rx="1"/>
<text x="374" y="125" style="font-family:sans-serif;font-size:10px;">
:
</text>
<rect x="191.8125" y="29.0" width="39.0" height="12.0" style="fill:orange; stroke:rgb(0,0,0);" rx="1"/>
<text x="193" y="38" style="font-family:sans-serif;font-size:10px;">
&lt;EOF&gt;
</text>
<rect x="164.8125" y="29.0" width="20.0" height="12.0" style="fill:orange; stroke:rgb(0,0,0);" rx="1"/>
<text x="166" y="38" style="font-family:sans-serif;font-size:10px;">
line
</text>
<rect x="354.75" y="145.0" width="28.0" height="12.0" style="fill:orange; stroke:rgb(0,0,0);" rx="1"/>
<text x="356" y="154" style="font-family:sans-serif;font-size:10px;">
work
</text>
<rect x="401.0" y="116.0" width="8.0" height="12.0" style="fill:orange; stroke:rgb(0,0,0);" rx="1"/>
<text x="403" y="125" style="font-family:sans-serif;font-size:10px;">
)
</text>
<rect x="31.0" y="87.0" width="7.0" height="12.0" style="fill:orange; stroke:rgb(0,0,0);" rx="1"/>
<text x="33" y="96" style="font-family:sans-serif;font-size:10px;">
·
</text>
<rect x="177.0" y="87.0" width="42.0" height="12.0" style="fill:orange; stroke:rgb(0,0,0);" rx="1"/>
<text x="179" y="96" style="font-family:sans-serif;font-size:10px;">
mention
</text>
<rect x="0.0" y="87.0" width="24.0" height="12.0" style="fill:orange; stroke:rgb(0,0,0);" rx="1"/>
<text x="2" y="96" style="font-family:sans-serif;font-size:10px;">
john
</text>
<rect x="301.75" y="145.0" width="7.0" height="12.0" style="fill:orange; stroke:rgb(0,0,0);" rx="1"/>
<text x="303" y="154" style="font-family:sans-serif;font-size:10px;">
·
</text>
<rect x="273.75" y="145.0" width="21.0" height="12.0" style="fill:orange; stroke:rgb(0,0,0);" rx="1"/>
<text x="275" y="154" style="font-family:sans-serif;font-size:10px;">
this
</text>
<rect x="45.0" y="87.0" width="50.0" height="12.0" style="fill:orange; stroke:rgb(0,0,0);" rx="1"/>
<text x="47" y="96" style="font-family:sans-serif;font-size:10px;">
SHOUTS
</text>
<rect x="180.5625" y="0.0" width="25.0" height="12.0" style="fill:orange; stroke:rgb(0,0,0);" rx="1"/>
<text x="182" y="9" style="font-family:sans-serif;font-size:10px;">
chat
</text>
<rect x="68.75" y="58.0" width="52.0" height="12.0" style="fill:orange; stroke:rgb(0,0,0);" rx="1"/>
<text x="70" y="67" style="font-family:sans-serif;font-size:10px;">
command
</text>
<rect x="116.0" y="87.0" width="7.0" height="12.0" style="fill:orange; stroke:rgb(0,0,0);" rx="1"/>
<text x="118" y="96" style="font-family:sans-serif;font-size:10px;">
·
</text>
<rect x="7.75" y="58.0" width="31.0" height="12.0" style="fill:orange; stroke:rgb(0,0,0);" rx="1"/>
<text x="9" y="67" style="font-family:sans-serif;font-size:10px;">
name
</text>
<rect x="257.0" y="116.0" width="24.0" height="12.0" style="fill:orange; stroke:rgb(0,0,0);" rx="1"/>
<text x="259" y="125" style="font-family:sans-serif;font-size:10px;">
pink
</text>
</svg>